<svg version="1.1" id="Layer_1" xmlns="http://www.w3.org/2000/svg" xmlns:xlink="http://www.w3.org/1999/xlink" x="0px" y="0px"
	 width="100%" viewBox="0 0 3393 3393" enable-background="new 0 0 3393 3393" xml:space="preserve">
<path fill="#FFFFFF" opacity="1.000000" stroke="none" 
	d="
M1798.000000,3396.000000 
	C1198.666870,3396.000000 600.333679,3396.000000 2.000401,3396.000000 
	C2.000268,2264.667236 2.000268,1133.334351 2.000134,2.001160 
	C1133.332520,2.000773 2264.665039,2.000773 3395.998047,2.000387 
	C3395.998779,1133.332153 3395.998779,2264.664307 3395.999512,3395.998047 
	C2863.666748,3396.000000 2331.333252,3396.000000 1798.000000,3396.000000 
M2430.663574,3191.663574 
	C2440.725098,3186.469238 2450.831055,3181.358887 2460.841797,3176.068604 
	C2689.578125,3055.185547 2880.035400,2889.910400 3031.615967,2680.467041 
	C3186.045654,2467.086670 3283.433105,2229.797119 3324.516846,1969.484741 
	C3335.231689,1901.592773 3341.495361,1833.289185 3343.544678,1764.643799 
	C3345.864258,1686.952271 3342.951904,1609.422363 3334.482910,1532.094604 
	C3326.967529,1463.472168 3315.703613,1395.504028 3299.344971,1328.471802 
	C3223.493164,1017.661011 3071.209961,750.275024 2842.089600,526.936035 
	C2716.546875,404.561096 2574.761230,305.006714 2417.161133,228.121368 
	C2210.835693,127.465157 1992.890015,72.289909 1763.585815,62.446266 
	C1690.289673,59.299778 1617.025635,60.912743 1543.876099,67.495506 
	C1484.769287,72.814552 1426.084229,80.926170 1367.925049,92.555786 
	C1212.528320,123.629150 1064.634888,176.049393 924.306030,249.715332 
	C755.381958,338.392365 606.575195,453.273041 477.156403,593.354614 
	C351.196442,729.692261 251.135147,882.987366 176.948395,1053.106079 
	C122.119614,1178.834473 83.522400,1309.369629 61.485748,1444.825806 
	C49.536549,1518.275879 42.521805,1592.161621 40.423386,1666.490723 
	C38.692162,1727.813232 40.380669,1789.076172 45.479946,1850.256958 
	C50.713665,1913.050903 59.326191,1975.323364 71.566010,2037.131104 
	C101.515419,2188.367432 152.040359,2332.435547 222.626266,2469.411621 
	C329.474823,2676.757568 473.643524,2854.177979 655.649109,2999.793213 
	C949.068176,3234.545410 1284.508789,3355.713379 1660.208496,3365.120117 
	C1713.544067,3366.455566 1766.800415,3364.395020 1820.007690,3360.419434 
	C1891.514771,3355.076904 1962.312622,3344.965820 2032.491699,3330.302979 
	C2170.727783,3301.421143 2302.883057,3255.103760 2430.663574,3191.663574 
z"/>
<path fill="#C62C2C" opacity="1.000000" stroke="none" 
	d="
M2429.976074,3191.952148 
	C2302.883057,3255.103760 2170.727783,3301.421143 2032.491699,3330.302979 
	C1962.312622,3344.965820 1891.514771,3355.076904 1820.007690,3360.419434 
	C1766.800415,3364.395020 1713.544067,3366.455566 1660.208496,3365.120117 
	C1284.508789,3355.713379 949.068176,3234.545410 655.649109,2999.793213 
	C473.643524,2854.177979 329.474823,2676.757568 222.626266,2469.411621 
	C152.040359,2332.435547 101.515419,2188.367432 71.566010,2037.131104 
	C59.326191,1975.323364 50.713665,1913.050903 45.479946,1850.256958 
	C40.380669,1789.076172 38.692162,1727.813232 40.423386,1666.490723 
	C42.521805,1592.161621 49.536549,1518.275879 61.485748,1444.825806 
	C83.522400,1309.369629 122.119614,1178.834473 176.948395,1053.106079 
	C251.135147,882.987366 351.196442,729.692261 477.156403,593.354614 
	C606.575195,453.273041 755.381958,338.392365 924.306030,249.715332 
	C1064.634888,176.049393 1212.528320,123.629150 1367.925049,92.555786 
	C1426.084229,80.926170 1484.769287,72.814552 1543.876099,67.495506 
	C1617.025635,60.912743 1690.289673,59.299778 1763.585815,62.446266 
	C1992.890015,72.289909 2210.835693,127.465157 2417.161133,228.121368 
	C2574.761230,305.006714 2716.546875,404.561096 2842.089600,526.936035 
	C3071.209961,750.275024 3223.493164,1017.661011 3299.344971,1328.471802 
	C3315.703613,1395.504028 3326.967529,1463.472168 3334.482910,1532.094604 
	C3342.951904,1609.422363 3345.864258,1686.952271 3343.544678,1764.643799 
	C3341.495361,1833.289185 3335.231689,1901.592773 3324.516846,1969.484741 
	C3283.433105,2229.797119 3186.045654,2467.086670 3031.615967,2680.467041 
	C2880.035400,2889.910400 2689.578125,3055.185547 2460.841797,3176.068604 
	C2450.831055,3181.358887 2440.725098,3186.469238 2429.976074,3191.952148 
M1954.316528,1273.316284 
	C1867.144043,1360.486816 1779.971680,1447.657349 1692.398438,1535.228638 
	C1689.311279,1532.363647 1686.849121,1530.223145 1684.547607,1527.921997 
	C1559.385742,1402.779419 1434.237549,1277.623169 1309.087402,1152.468872 
	C1272.555786,1115.936035 1236.172363,1079.253418 1199.445923,1042.917603 
	C1164.970581,1008.809204 1123.779419,996.694885 1076.592163,1008.386597 
	C1019.106873,1022.629883 979.819702,1077.538696 983.414001,1136.730103 
	C985.404541,1169.510498 998.353516,1197.059937 1021.474182,1220.171875 
	C1182.953369,1381.590210 1344.388306,1543.052856 1505.833130,1704.505493 
	C1508.592285,1707.264526 1511.301636,1710.073364 1515.032715,1713.876953 
	C1511.440674,1716.991821 1508.252930,1719.430542 1505.439087,1722.243408 
	C1343.961182,1883.663208 1182.467773,2045.067383 1021.103027,2206.600342 
	C988.461975,2239.275391 977.009460,2278.825195 986.151855,2323.899658 
	C999.004883,2387.269287 1063.078491,2430.961670 1126.689331,2420.819336 
	C1155.755493,2416.184814 1179.950317,2403.044678 1200.635132,2382.340332 
	C1361.536377,2221.286865 1522.548828,2060.344238 1683.535889,1899.376465 
	C1686.281616,1896.630981 1689.140259,1893.998413 1693.414185,1889.908569 
	C1696.262085,1893.608032 1698.209839,1896.806030 1700.781128,1899.381226 
	C1769.788696,1968.489014 1838.861938,2037.531006 1907.920166,2106.588135 
	C2000.312134,2198.978271 2092.652832,2291.419922 2185.118164,2383.736816 
	C2215.976562,2414.545654 2253.190430,2427.229736 2296.349365,2420.218262 
	C2369.688477,2408.303955 2416.253174,2335.005371 2396.567139,2263.427734 
	C2390.015381,2239.605957 2376.860352,2220.109863 2359.530518,2202.800781 
	C2199.165527,2042.625366 2038.939941,1882.310303 1878.602417,1722.107544 
	C1875.794189,1719.301636 1872.096191,1717.386353 1868.813477,1715.055420 
	C1868.866333,1713.822144 1868.919312,1712.588745 1868.972168,1711.355469 
	C1872.900269,1708.280151 1877.199463,1705.576172 1880.702515,1702.075684 
	C2041.034180,1541.866699 2201.269043,1381.560791 2361.591553,1221.342407 
	C2390.435303,1192.517456 2403.675049,1158.177368 2400.319824,1117.363159 
	C2395.265381,1055.874512 2341.442383,1005.262939 2279.519287,1004.189880 
	C2242.625977,1003.550598 2211.200195,1016.383301 2185.103271,1042.504395 
	C2108.539062,1119.139648 2031.916626,1195.716797 1954.316528,1273.316284 
z"/>
<path fill="#FFFEFE" opacity="1.000000" stroke="none" 
	d="
M1954.816650,1272.816406 
	C2031.916626,1195.716797 2108.539062,1119.139648 2185.103271,1042.504395 
	C2211.200195,1016.383301 2242.625977,1003.550598 2279.519287,1004.189880 
	C2341.442383,1005.262939 2395.265381,1055.874512 2400.319824,1117.363159 
	C2403.675049,1158.177368 2390.435303,1192.517456 2361.591553,1221.342407 
	C2201.269043,1381.560791 2041.034180,1541.866699 1880.702515,1702.075684 
	C1877.199463,1705.576172 1872.900269,1708.280151 1868.972168,1711.355469 
	C1868.919312,1712.588745 1868.866333,1713.822144 1868.813477,1715.055420 
	C1872.096191,1717.386353 1875.794189,1719.301636 1878.602417,1722.107544 
	C2038.939941,1882.310303 2199.165527,2042.625366 2359.530518,2202.800781 
	C2376.860352,2220.109863 2390.015381,2239.605957 2396.567139,2263.427734 
	C2416.253174,2335.005371 2369.688477,2408.303955 2296.349365,2420.218262 
	C2253.190430,2427.229736 2215.976562,2414.545654 2185.118164,2383.736816 
	C2092.652832,2291.419922 2000.312134,2198.978271 1907.920166,2106.588135 
	C1838.861938,2037.531006 1769.788696,1968.489014 1700.781128,1899.381226 
	C1698.209839,1896.806030 1696.262085,1893.608032 1693.414185,1889.908569 
	C1689.140259,1893.998413 1686.281616,1896.630981 1683.535889,1899.376465 
	C1522.548828,2060.344238 1361.536377,2221.286865 1200.635132,2382.340332 
	C1179.950317,2403.044678 1155.755493,2416.184814 1126.689331,2420.819336 
	C1063.078491,2430.961670 999.004883,2387.269287 986.151855,2323.899658 
	C977.009460,2278.825195 988.461975,2239.275391 1021.103027,2206.600342 
	C1182.467773,2045.067383 1343.961182,1883.663208 1505.439087,1722.243408 
	C1508.252930,1719.430542 1511.440674,1716.991821 1515.032715,1713.876953 
	C1511.301636,1710.073364 1508.592285,1707.264526 1505.833130,1704.505493 
	C1344.388306,1543.052856 1182.953369,1381.590210 1021.474182,1220.171875 
	C998.353516,1197.059937 985.404541,1169.510498 983.414001,1136.730103 
	C979.819702,1077.538696 1019.106873,1022.629883 1076.592163,1008.386597 
	C1123.779419,996.694885 1164.970581,1008.809204 1199.445923,1042.917603 
	C1236.172363,1079.253418 1272.555786,1115.936035 1309.087402,1152.468872 
	C1434.237549,1277.623169 1559.385742,1402.779419 1684.547607,1527.921997 
	C1686.849121,1530.223145 1689.311279,1532.363647 1692.398438,1535.228638 
	C1779.971680,1447.657349 1867.144043,1360.486816 1954.816650,1272.816406 
z"/>
</svg>