<svg version="1.1" id="Layer_1" xmlns="http://www.w3.org/2000/svg" xmlns:xlink="http://www.w3.org/1999/xlink" x="0px" y="0px"
	 width="100%" viewBox="0 0 3980 3847" enable-background="new 0 0 3980 3847" xml:space="preserve">
<path fill="#FFFFFF" opacity="1.000000" stroke="none" 
	d="
M2282.000000,3850.000000 
	C1521.333374,3850.000000 761.666687,3850.000000 2.000000,3850.000000 
	C2.000000,2567.333252 2.000000,1284.666626 2.000000,2.000000 
	C1328.666626,2.000000 2655.333252,2.000000 3982.000000,2.000000 
	C3982.000000,1284.666626 3982.000000,2567.333252 3982.000000,3850.000000 
	C3415.666748,3850.000000 2849.333252,3850.000000 2282.000000,3850.000000 
M2052.251709,289.997009 
	C2048.833252,289.959320 2045.414673,289.921631 2041.121338,289.796814 
	C2041.121338,289.796814 2040.242798,289.771576 2038.897339,288.825409 
	C2032.592163,288.513214 2026.287109,288.200989 2019.118042,287.800079 
	C2019.118042,287.800079 2018.250122,287.773254 2016.872070,286.844238 
	C2009.240845,286.531403 2001.609741,286.218536 1992.572876,285.803650 
	C1991.164917,285.744385 1989.756958,285.685120 1986.952026,284.672577 
	C1977.954102,284.423279 1968.956299,284.174011 1958.694336,283.839783 
	C1957.852295,283.782043 1957.010132,283.724274 1954.853760,282.678802 
	C1948.475464,282.563690 1942.097290,282.448578 1933.880981,282.266846 
	C1896.681641,282.289917 1859.482300,282.312958 1820.517944,281.992462 
	C1814.944580,282.511475 1809.371338,283.030487 1802.135986,283.725769 
	C1798.791748,283.831360 1795.447510,283.936951 1790.237793,283.714752 
	C1773.662231,284.555206 1757.084351,285.356842 1740.514648,286.299927 
	C1738.966309,286.388062 1737.468872,287.369965 1735.986084,288.002686 
	C1735.986084,288.002686 1735.972534,287.933502 1734.210083,287.641144 
	C1728.083374,288.367859 1721.956787,289.094574 1714.116699,289.986908 
	C1683.736572,293.875305 1653.288452,297.299469 1622.989868,301.744080 
	C1548.751221,312.634460 1475.798340,329.459869 1403.996948,351.150787 
	C1206.048706,410.950134 1025.330933,504.097839 862.362427,631.529663 
	C758.448608,712.784180 665.448608,805.060303 583.519287,908.392029 
	C459.210480,1065.173950 366.555786,1238.952515 305.328430,1429.447876 
	C281.714355,1502.917725 263.276794,1577.672119 250.262573,1653.754395 
	C249.094635,1660.582520 247.133469,1667.282104 246.117493,1674.127075 
	C244.666565,1683.902344 243.878174,1693.774048 242.566940,1703.572632 
	C241.208755,1713.721924 239.564270,1723.832886 237.769501,1735.336060 
	C237.888535,1736.257324 238.007568,1737.178589 238.026459,1739.778320 
	C237.648941,1743.107910 237.271439,1746.437378 236.204575,1750.729614 
	C236.231705,1751.887695 236.258850,1753.045654 236.178223,1755.968506 
	C235.652222,1761.212646 235.126221,1766.456665 233.987076,1772.850464 
	C234.004669,1774.575195 234.022247,1776.300049 233.914642,1779.640381 
	C233.424393,1784.328247 232.934143,1789.015991 232.002304,1794.912109 
	C232.078568,1795.334229 232.154816,1795.756226 232.212997,1797.454224 
	C232.149002,1798.302490 232.085022,1799.150757 231.251312,1800.608276 
	C231.443344,1801.737549 231.635376,1802.866943 231.796387,1805.638794 
	C231.312271,1811.016724 230.828171,1816.394653 229.811798,1823.072510 
	C229.829086,1826.047485 229.846375,1829.022461 229.841888,1833.786377 
	C229.379807,1841.093506 228.917725,1848.400513 227.904358,1857.256104 
	C227.994354,1858.881226 228.084335,1860.506226 228.171768,1863.419678 
	C228.150192,1864.278320 228.128601,1865.136841 227.272079,1866.802124 
	C227.486557,1868.534180 227.701035,1870.266235 227.934387,1873.873169 
	C226.599197,1917.889404 226.714294,1961.900391 227.998047,2007.441772 
	C228.210205,2008.992554 228.422363,2010.543335 228.568985,2013.716309 
	C229.042847,2020.477051 229.516708,2027.237793 229.387329,2034.682495 
	C229.654449,2035.780151 229.921555,2036.877930 230.104462,2039.452515 
	C230.207336,2040.927124 230.310211,2042.401855 230.138138,2045.023193 
	C230.272125,2045.392822 230.406128,2045.762451 230.519852,2047.764648 
	C231.648941,2060.506592 232.778015,2073.248535 233.345200,2086.701904 
	C233.620667,2087.792969 233.896133,2088.883789 234.155411,2091.655762 
	C234.919388,2099.063721 235.683350,2106.471436 236.156265,2114.874023 
	C236.408401,2115.498779 236.660553,2116.123779 237.033600,2118.201660 
	C237.302643,2120.127441 237.571686,2122.053223 237.248962,2124.985596 
	C237.681091,2127.350830 238.113220,2129.716309 238.586197,2133.607666 
	C239.168274,2137.709717 239.750351,2141.811768 240.015259,2147.141602 
	C240.365082,2148.325684 240.714890,2149.509521 241.218842,2152.291504 
	C241.603958,2155.489258 241.989075,2158.686768 242.175262,2163.059082 
	C242.344452,2163.418213 242.513641,2163.777588 242.797501,2165.731689 
	C245.097626,2180.358398 247.405060,2194.983643 249.695801,2209.611816 
	C251.985229,2224.231201 253.773941,2238.882324 257.437592,2253.324951 
	C262.507172,2273.310059 265.763275,2293.748291 270.534210,2313.817139 
	C315.332520,2502.259766 390.509613,2677.695801 496.722198,2839.702881 
	C587.627502,2978.361816 697.189453,3100.443604 824.758545,3206.301758 
	C1011.393005,3361.173096 1222.209473,3469.298584 1456.430054,3531.826660 
	C1523.566284,3549.749512 1591.610962,3563.363037 1660.587402,3572.072998 
	C1677.684814,3574.232178 1694.827393,3576.033936 1713.335938,3578.810303 
	C1719.576660,3579.178955 1725.817261,3579.547607 1732.004883,3580.000000 
	C1732.004883,3580.000000 1732.046143,3579.914551 1733.376343,3580.788818 
	C1739.650635,3581.078125 1745.925049,3581.367676 1753.472900,3581.774414 
	C1754.324585,3581.812012 1755.176270,3581.849609 1757.395508,3582.752686 
	C1766.321045,3583.086426 1775.246582,3583.419922 1785.428711,3583.841553 
	C1786.268433,3583.855713 1787.108032,3583.869873 1789.342529,3584.739014 
	C1802.942383,3585.051514 1816.542358,3585.364014 1830.215088,3585.948486 
	C1830.215088,3585.948486 1829.962524,3586.072998 1831.182983,3587.213623 
	C1832.140015,3587.448730 1833.096680,3587.887451 1834.054077,3587.889160 
	C1863.246826,3587.943115 1892.439575,3587.994141 1921.631958,3587.891113 
	C1923.770386,3587.883545 1925.904541,3586.715576 1927.787231,3585.967285 
	C1927.787231,3585.967285 1927.854370,3585.695068 1929.708008,3586.118408 
	C1941.823853,3585.412109 1953.939819,3584.706055 1967.611206,3584.005371 
	C1969.682861,3583.917480 1971.754395,3583.829834 1975.672119,3584.130371 
	C1984.433960,3583.376953 1993.195801,3582.623535 2002.885620,3581.844482 
	C2002.885620,3581.844482 2003.809814,3581.757568 2005.614502,3582.137695 
	C2012.397217,3581.399902 2019.179932,3580.662354 2025.990234,3580.000000 
	C2025.990234,3580.000000 2025.944336,3579.927246 2027.733643,3580.263184 
	C2034.472534,3579.465332 2041.211304,3578.667236 2048.880859,3577.832764 
	C2048.880859,3577.832764 2049.807129,3577.736084 2051.511475,3578.075684 
	C2056.339111,3577.364258 2061.166504,3576.652832 2067.753174,3575.873779 
	C2070.417236,3575.886230 2073.134766,3576.249023 2075.736816,3575.853271 
	C2091.654785,3573.434082 2107.516846,3570.637695 2123.451904,3568.344727 
	C2199.377930,3557.418945 2274.079346,3540.877930 2347.566895,3518.990479 
	C2558.980469,3456.023438 2750.578857,3355.392578 2921.634033,3215.960938 
	C3045.924072,3114.648926 3153.609619,2997.979492 3244.054443,2865.540039 
	C3353.327881,2705.529785 3431.913574,2531.569824 3480.121338,2343.900391 
	C3498.205078,2273.502197 3511.363037,2202.180908 3520.583496,2129.380127 
	C3520.449951,2128.250488 3520.316406,2127.121094 3520.336670,2124.439453 
	C3520.844482,2120.291748 3521.352295,2116.144287 3522.582764,2111.374268 
	C3522.443848,2110.247070 3522.304932,2109.119629 3522.317627,2106.405518 
	C3522.840576,2101.602783 3523.363525,2096.800293 3524.606201,2091.369141 
	C3524.451172,2090.243896 3524.296143,2089.118896 3524.273682,2086.281982 
	C3525.208984,2075.002441 3526.144287,2063.722656 3527.667725,2051.647949 
	C3527.927490,2050.972168 3527.845703,2050.340332 3527.586670,2048.207275 
	C3527.675781,2046.136841 3527.765137,2044.066406 3528.630127,2041.176025 
	C3528.452881,2039.449097 3528.275635,2037.722046 3528.198975,2034.213867 
	C3528.765869,2023.475098 3529.332520,2012.736206 3530.690430,2001.189941 
	C3530.484863,1999.458740 3530.279297,1997.727539 3530.158936,1994.137085 
	C3530.121338,1953.425293 3530.083740,1912.713379 3530.752686,1871.127441 
	C3530.468750,1869.419922 3530.184814,1867.712524 3529.863525,1864.196289 
	C3526.631104,1823.466309 3523.398682,1782.736206 3520.862305,1741.034302 
	C3520.387695,1738.624634 3519.913086,1736.214844 3519.265625,1732.231689 
	C3518.104736,1723.525757 3516.944092,1714.819946 3516.118896,1704.949585 
	C3515.778564,1703.824463 3515.438232,1702.699341 3514.768555,1699.914551 
	C3513.855225,1696.083618 3512.622314,1692.296753 3512.088135,1688.413696 
	C3510.421875,1676.299072 3509.548340,1664.053833 3507.403564,1652.031128 
	C3503.135742,1628.111450 3498.714600,1604.198853 3493.500000,1580.471680 
	C3461.942627,1436.891113 3412.185059,1299.906494 3344.180908,1169.540894 
	C3279.883545,1046.280640 3201.144287,933.051880 3108.139160,829.782532 
	C3030.952148,744.076233 2945.954346,666.947388 2852.725586,598.941406 
	C2693.120117,482.517120 2518.270020,397.368011 2328.173340,343.727051 
	C2258.613037,324.098663 2188.326904,307.596466 2116.258789,299.826019 
	C2100.209961,298.095642 2084.239014,295.644043 2067.447266,292.379303 
	C2065.642578,292.209290 2063.837646,292.039307 2061.119873,291.816528 
	C2061.119873,291.816528 2060.211914,291.703705 2059.216553,290.796936 
	C2057.458008,290.617157 2055.699707,290.437378 2052.251709,289.997009 
z"/>
<path fill="#44AA56" opacity="1.000000" stroke="none" 
	d="
M1973.826050,3583.741943 
	C1971.754395,3583.829834 1969.682861,3583.917480 1965.901245,3583.845215 
	C1957.907349,3583.768311 1951.612549,3583.652832 1945.342529,3583.992432 
	C1939.499512,3584.308594 1933.682739,3585.108398 1927.854370,3585.695068 
	C1927.854370,3585.695068 1927.787231,3585.967285 1926.985718,3585.860352 
	C1920.561646,3585.794922 1914.939087,3585.858398 1909.316406,3585.874023 
	C1882.865112,3585.947754 1856.413818,3586.008057 1829.962524,3586.072998 
	C1829.962524,3586.072998 1830.215088,3585.948486 1829.506104,3585.324463 
	C1815.180542,3584.428223 1801.564209,3584.156250 1787.947754,3583.884033 
	C1787.108032,3583.869873 1786.268433,3583.855713 1784.127686,3583.307373 
	C1773.893799,3582.478027 1764.960815,3582.182617 1756.027954,3581.887207 
	C1755.176270,3581.849609 1754.324585,3581.812012 1752.176514,3581.231445 
	C1744.602173,3580.430420 1738.324219,3580.172363 1732.046143,3579.914551 
	C1732.046143,3579.914551 1732.004883,3580.000000 1731.390747,3579.464844 
	C1724.500854,3578.619873 1718.224976,3578.310059 1711.949219,3578.000000 
	C1694.827393,3576.033936 1677.684814,3574.232178 1660.587402,3572.072998 
	C1591.610962,3563.363037 1523.566284,3549.749512 1456.430054,3531.826660 
	C1222.209473,3469.298584 1011.393005,3361.173096 824.758545,3206.301758 
	C697.189453,3100.443604 587.627502,2978.361816 496.722198,2839.702881 
	C390.509613,2677.695801 315.332520,2502.259766 270.534210,2313.817139 
	C265.763275,2293.748291 262.507172,2273.310059 257.437592,2253.324951 
	C253.773941,2238.882324 251.985229,2224.231201 249.695801,2209.611816 
	C247.405060,2194.983643 245.097626,2180.358398 243.015701,2164.687744 
	C242.947311,2163.057373 242.660721,2162.470947 242.374161,2161.884521 
	C241.989075,2158.686768 241.603958,2155.489258 241.426453,2150.879883 
	C241.200195,2148.283203 240.766296,2147.098633 240.332428,2145.913818 
	C239.750351,2141.811768 239.168274,2137.709717 238.968445,2132.334961 
	C238.847351,2128.701172 238.344025,2126.340088 237.840714,2123.979004 
	C237.571686,2122.053223 237.302643,2120.127441 237.228241,2116.980469 
	C237.097702,2115.132812 236.772537,2114.506104 236.447342,2113.879395 
	C235.683350,2106.471436 234.919388,2099.063721 234.547119,2090.489502 
	C234.594910,2088.212402 234.251007,2087.101318 233.907104,2085.990479 
	C232.778015,2073.248535 231.648941,2060.506592 230.821930,2046.720215 
	C230.887039,2045.076050 230.650055,2044.476196 230.413086,2043.876465 
	C230.310211,2042.401855 230.207336,2040.927124 230.544800,2038.401611 
	C230.653610,2036.233276 230.322083,2035.115845 229.990570,2033.998535 
	C229.516708,2027.237793 229.042847,2020.477051 228.981354,2012.462158 
	C229.063400,2009.440674 228.733109,2007.673218 228.402802,2005.905884 
	C226.714294,1961.900391 226.599197,1917.889404 228.290222,1872.514282 
	C228.466370,1869.435425 228.286682,1867.715454 228.106995,1865.995483 
	C228.128601,1865.136841 228.150192,1864.278320 228.546906,1862.325684 
	C228.766556,1859.390381 228.611099,1857.549072 228.455627,1855.707642 
	C228.917725,1848.400513 229.379807,1841.093506 230.258545,1832.355957 
	C230.564835,1827.874512 230.454468,1824.823608 230.344086,1821.772583 
	C230.828171,1816.394653 231.312271,1811.016724 232.162430,1804.502563 
	C232.359329,1802.243896 232.190170,1801.121460 232.021027,1799.999023 
	C232.085022,1799.150757 232.149002,1798.302490 232.514420,1796.578613 
	C232.901291,1795.467529 233.105728,1795.196777 233.048279,1795.003784 
	C232.913437,1794.550659 232.653290,1794.134766 232.443863,1793.703857 
	C232.934143,1789.015991 233.424393,1784.328247 234.424744,1778.307617 
	C234.823318,1775.216797 234.711777,1773.458740 234.600220,1771.700806 
	C235.126221,1766.456665 235.652222,1761.212646 236.621689,1754.611084 
	C237.008072,1752.091431 236.951004,1750.929199 236.893921,1749.766968 
	C237.271439,1746.437378 237.648941,1743.107910 238.428345,1738.593994 
	C238.568481,1736.260132 238.306747,1735.110352 238.045013,1733.960693 
	C239.564270,1723.832886 241.208755,1713.721924 242.566940,1703.572632 
	C243.878174,1693.774048 244.666565,1683.902344 246.117493,1674.127075 
	C247.133469,1667.282104 249.094635,1660.582520 250.262573,1653.754395 
	C263.276794,1577.672119 281.714355,1502.917725 305.328430,1429.447876 
	C366.555786,1238.952515 459.210480,1065.173950 583.519287,908.392029 
	C665.448608,805.060303 758.448608,712.784180 862.362427,631.529663 
	C1025.330933,504.097839 1206.048706,410.950134 1403.996948,351.150787 
	C1475.798340,329.459869 1548.751221,312.634460 1622.989868,301.744080 
	C1653.288452,297.299469 1683.736572,293.875305 1715.865601,290.065948 
	C1723.733887,289.407837 1729.853149,288.670685 1735.972534,287.933502 
	C1735.972534,287.933502 1735.986084,288.002686 1736.890137,288.136230 
	C1744.745117,287.939484 1751.712036,287.802673 1758.643433,287.234863 
	C1769.809082,286.320221 1780.951172,285.121338 1792.103271,284.042542 
	C1795.447510,283.936951 1798.791748,283.831360 1803.856934,283.857971 
	C1810.987305,283.942780 1816.396851,283.895355 1822.751709,283.942078 
	C1861.196411,283.976532 1898.695679,283.916870 1937.090576,283.852325 
	C1944.046875,283.787140 1950.107544,283.726837 1956.168091,283.666565 
	C1957.010132,283.724274 1957.852295,283.782043 1960.000488,284.347961 
	C1970.320679,285.112701 1979.334839,285.369263 1988.348999,285.625854 
	C1989.756958,285.685120 1991.164917,285.744385 1993.931885,286.337219 
	C2002.943970,287.171600 2010.597046,287.472443 2018.250122,287.773254 
	C2018.250122,287.773254 2019.118042,287.800079 2020.201660,288.319763 
	C2027.604492,289.150177 2033.923584,289.460876 2040.242798,289.771545 
	C2040.242798,289.771576 2041.121338,289.796814 2042.159424,290.308685 
	C2046.820190,291.109344 2050.442871,291.398132 2054.830078,291.818665 
	C2057.133545,291.868134 2058.672607,291.785919 2060.211914,291.703705 
	C2060.211914,291.703705 2061.119873,291.816528 2062.091553,292.248260 
	C2064.786133,292.961487 2066.509277,293.242981 2068.232178,293.524475 
	C2084.239014,295.644043 2100.209961,298.095642 2116.258789,299.826019 
	C2188.326904,307.596466 2258.613037,324.098663 2328.173340,343.727051 
	C2518.270020,397.368011 2693.120117,482.517120 2852.725586,598.941406 
	C2945.954346,666.947388 3030.952148,744.076233 3108.139160,829.782532 
	C3201.144287,933.051880 3279.883545,1046.280640 3344.180908,1169.540894 
	C3412.185059,1299.906494 3461.942627,1436.891113 3493.500000,1580.471680 
	C3498.714600,1604.198853 3503.135742,1628.111450 3507.403564,1652.031128 
	C3509.548340,1664.053833 3510.421875,1676.299072 3512.088135,1688.413696 
	C3512.622314,1692.296753 3513.855225,1696.083618 3514.640625,1701.313721 
	C3514.936035,1703.846680 3515.359619,1704.980347 3515.783203,1706.114014 
	C3516.944092,1714.819946 3518.104736,1723.525757 3518.996094,1733.553467 
	C3519.206299,1737.252319 3519.686279,1739.629272 3520.166016,1742.006226 
	C3523.398682,1782.736206 3526.631104,1823.466309 3529.508789,1865.531250 
	C3529.451416,1868.577881 3529.748779,1870.289673 3530.046387,1872.001587 
	C3530.083740,1912.713379 3530.121338,1953.425293 3529.703613,1995.464600 
	C3529.465088,1998.527100 3529.682373,2000.262329 3529.899414,2001.997437 
	C3529.332520,2012.736206 3528.765869,2023.475098 3527.739746,2035.507324 
	C3527.471924,2038.532593 3527.663330,2040.264282 3527.854492,2041.995972 
	C3527.765137,2044.066406 3527.675781,2046.136841 3527.157227,2049.363281 
	C3526.845215,2051.160645 3526.962402,2051.802002 3527.079590,2052.443115 
	C3526.144287,2063.722656 3525.208984,2075.002441 3523.817383,2087.436035 
	C3523.536377,2089.726074 3523.711426,2090.861816 3523.886719,2091.997559 
	C3523.363525,2096.800293 3522.840576,2101.602783 3521.855225,2107.500000 
	C3521.548584,2109.728760 3521.704346,2110.862549 3521.860107,2111.996582 
	C3521.352295,2116.144287 3520.844482,2120.291748 3519.869141,2125.513428 
	C3519.551270,2127.723633 3519.701172,2128.860107 3519.851318,2129.996338 
	C3511.363037,2202.180908 3498.205078,2273.502197 3480.121338,2343.900391 
	C3431.913574,2531.569824 3353.327881,2705.529785 3244.054443,2865.540039 
	C3153.609619,2997.979492 3045.924072,3114.648926 2921.634033,3215.960938 
	C2750.578857,3355.392578 2558.980469,3456.023438 2347.566895,3518.990479 
	C2274.079346,3540.877930 2199.377930,3557.418945 2123.451904,3568.344727 
	C2107.516846,3570.637695 2091.654785,3573.434082 2075.736816,3575.853271 
	C2073.134766,3576.249023 2070.417236,3575.886230 2066.024902,3575.771484 
	C2059.466553,3576.357910 2054.636963,3577.046875 2049.807129,3577.736084 
	C2049.807129,3577.736084 2048.880859,3577.832764 2047.519531,3577.718262 
	C2039.420288,3578.378174 2032.682373,3579.152588 2025.944336,3579.927246 
	C2025.944336,3579.927246 2025.990234,3580.000000 2025.082764,3579.817383 
	C2017.386719,3580.342041 2010.598267,3581.049805 2003.809814,3581.757568 
	C2003.809814,3581.757568 2002.885620,3581.844482 2001.504150,3581.711670 
	C1991.357178,3582.299805 1982.591675,3583.020996 1973.826050,3583.741943 
M1060.835815,2021.981567 
	C1059.776855,2022.577271 1058.717896,2023.172974 1056.856934,2023.886841 
	C1056.856934,2023.886841 1056.115234,2024.214111 1054.913208,2024.102295 
	C1053.938721,2024.747437 1052.964233,2025.392578 1050.643311,2026.380249 
	C1015.944214,2044.379150 999.789917,2073.034668 1001.845337,2111.922607 
	C1002.715149,2128.378906 1009.810730,2142.619385 1018.395935,2156.355469 
	C1110.443726,2303.632080 1207.607666,2447.436035 1310.903564,2587.065430 
	C1331.708862,2615.188721 1353.009644,2642.962402 1374.682861,2670.422852 
	C1406.412231,2710.624512 1447.710327,2731.758057 1499.484375,2730.046631 
	C1537.038330,2728.805420 1569.429321,2714.367188 1596.630859,2688.785156 
	C1658.062744,2631.010986 1717.444092,2571.168945 1775.610474,2510.112305 
	C1875.880981,2404.858887 1971.604492,2295.599121 2064.077637,2183.458496 
	C2201.095215,2017.298828 2330.943359,1845.650757 2455.750000,1670.197388 
	C2522.957031,1575.717651 2588.821777,1480.279663 2654.897217,1385.000244 
	C2684.895264,1341.743652 2713.907959,1297.804199 2743.421631,1254.211182 
	C2755.681396,1236.103027 2759.605225,1216.261719 2754.648193,1195.132202 
	C2748.075684,1167.116333 2730.376465,1148.510986 2702.865723,1140.812378 
	C2674.130859,1132.771240 2648.796143,1140.362183 2628.113525,1162.026245 
	C2603.031494,1188.298462 2578.347900,1214.952026 2553.198242,1241.158936 
	C2471.749268,1326.033081 2390.582275,1411.183350 2308.529297,1495.470703 
	C2206.470947,1600.308228 2102.951660,1703.721802 1995.840332,1803.413452 
	C1917.544556,1876.285767 1838.810547,1948.743286 1758.573608,2019.458862 
	C1671.580811,2096.128662 1582.633545,2170.581543 1494.497070,2245.952393 
	C1484.187012,2254.769287 1473.612671,2263.276855 1463.148804,2271.937744 
	C1458.407471,2268.894043 1454.462280,2266.422852 1450.577759,2263.859375 
	C1345.096313,2194.240234 1243.444458,2119.386719 1144.988159,2040.171631 
	C1135.041382,2032.168457 1124.562256,2025.242065 1110.919434,2021.108765 
	C1108.583252,2020.771973 1106.247192,2020.435181 1103.081787,2019.879639 
	C1103.081787,2019.879639 1102.224365,2019.883057 1100.848267,2018.918823 
	C1091.127686,2017.671265 1081.406372,2016.401489 1070.949585,2019.916016 
	C1070.949585,2019.916016 1070.081787,2020.151611 1068.662842,2019.927856 
	C1066.483154,2020.665161 1064.303467,2021.402466 1062.054443,2021.991577 
	C1062.054443,2021.991577 1062.084351,2022.149414 1060.835815,2021.981567 
z"/>
<path fill="#7CAA63" opacity="1.000000" stroke="none" 
	d="
M1936.194824,283.857178 
	C1898.695679,283.916870 1861.196411,283.976532 1822.875000,283.565613 
	C1822.052612,283.094971 1822.282959,282.336029 1822.282959,282.336029 
	C1859.482300,282.312958 1896.681641,282.289917 1934.917480,282.681396 
	C1935.953857,283.095978 1936.194824,283.857178 1936.194824,283.857178 
z"/>
<path fill="#D3FFF9" opacity="1.000000" stroke="none" 
	d="
M1830.572754,3586.643311 
	C1856.413818,3586.008057 1882.865112,3585.947754 1909.316406,3585.874023 
	C1914.939087,3585.858398 1920.561646,3585.794922 1927.112549,3585.920410 
	C1925.904541,3586.715576 1923.770386,3587.883545 1921.631958,3587.891113 
	C1892.439575,3587.994141 1863.246826,3587.943115 1834.054077,3587.889160 
	C1833.096680,3587.887451 1832.140015,3587.448730 1830.572754,3586.643311 
z"/>
<path fill="#BECFA3" opacity="1.000000" stroke="none" 
	d="
M1791.170532,283.878632 
	C1780.951172,285.121338 1769.809082,286.320221 1758.643433,287.234863 
	C1751.712036,287.802673 1744.745117,287.939484 1736.870972,288.103333 
	C1737.468872,287.369965 1738.966309,286.388062 1740.514648,286.299927 
	C1757.084351,285.356842 1773.662231,284.555206 1791.170532,283.878632 
z"/>
<path fill="#86D5B2" opacity="1.000000" stroke="none" 
	d="
M1788.645142,3584.311523 
	C1801.564209,3584.156250 1815.180542,3584.428223 1829.469604,3585.188477 
	C1816.542358,3585.364014 1802.942383,3585.051514 1788.645142,3584.311523 
z"/>
<path fill="#86D5B2" opacity="1.000000" stroke="none" 
	d="
M1928.781250,3585.906738 
	C1933.682739,3585.108398 1939.499512,3584.308594 1945.342529,3583.992432 
	C1951.612549,3583.652832 1957.907349,3583.768311 1965.123535,3583.842529 
	C1953.939819,3584.706055 1941.823853,3585.412109 1928.781250,3585.906738 
z"/>
<path fill="#AEC392" opacity="1.000000" stroke="none" 
	d="
M1987.650513,285.149231 
	C1979.334839,285.369263 1970.320679,285.112701 1960.632446,284.390411 
	C1968.956299,284.174011 1977.954102,284.423279 1987.650513,285.149231 
z"/>
<path fill="#86D5B2" opacity="1.000000" stroke="none" 
	d="
M1974.749023,3583.936035 
	C1982.591675,3583.020996 1991.357178,3582.299805 2001.040283,3581.724365 
	C1993.195801,3582.623535 1984.433960,3583.376953 1974.749023,3583.936035 
z"/>
<path fill="#86D5B2" opacity="1.000000" stroke="none" 
	d="
M1756.711670,3582.319824 
	C1764.960815,3582.182617 1773.893799,3582.478027 1783.499390,3583.263428 
	C1775.246582,3583.419922 1766.321045,3583.086426 1756.711670,3582.319824 
z"/>
<path fill="#AEC392" opacity="1.000000" stroke="none" 
	d="
M2017.561035,287.308746 
	C2010.597046,287.472443 2002.943970,287.171600 1994.634766,286.388214 
	C2001.609741,286.218536 2009.240845,286.531403 2017.561035,287.308746 
z"/>
<path fill="#86D5B2" opacity="1.000000" stroke="none" 
	d="
M2004.712158,3581.947754 
	C2010.598267,3581.049805 2017.386719,3580.342041 2025.068848,3579.779541 
	C2019.179932,3580.662354 2012.397217,3581.399902 2004.712158,3581.947754 
z"/>
<path fill="#86D5B2" opacity="1.000000" stroke="none" 
	d="
M2026.838989,3580.095215 
	C2032.682373,3579.152588 2039.420288,3578.378174 2047.054199,3577.736328 
	C2041.211304,3578.667236 2034.472534,3579.465332 2026.838989,3580.095215 
z"/>
<path fill="#BECFA3" opacity="1.000000" stroke="none" 
	d="
M1735.091309,287.787323 
	C1729.853149,288.670685 1723.733887,289.407837 1716.722290,289.983154 
	C1721.956787,289.094574 1728.083374,288.367859 1735.091309,287.787323 
z"/>
<path fill="#AEC392" opacity="1.000000" stroke="none" 
	d="
M2039.570068,289.298462 
	C2033.923584,289.460876 2027.604492,289.150177 2020.633545,288.364136 
	C2026.287109,288.200989 2032.592163,288.513214 2039.570068,289.298462 
z"/>
<path fill="#CAD5AF" opacity="1.000000" stroke="none" 
	d="
M1937.090576,283.852295 
	C1936.194824,283.857178 1935.953857,283.095978 1935.836426,282.714722 
	C1942.097290,282.448578 1948.475464,282.563690 1955.510986,283.172668 
	C1950.107544,283.726837 1944.046875,283.787140 1937.090576,283.852295 
z"/>
<path fill="#86D5B2" opacity="1.000000" stroke="none" 
	d="
M1732.711182,3580.351562 
	C1738.324219,3580.172363 1744.602173,3580.430420 1751.539795,3581.172852 
	C1745.925049,3581.367676 1739.650635,3581.078125 1732.711182,3580.351562 
z"/>
<path fill="#86D5B2" opacity="1.000000" stroke="none" 
	d="
M1712.642578,3578.405273 
	C1718.224976,3578.310059 1724.500854,3578.619873 1731.417236,3579.423096 
	C1725.817261,3579.547607 1719.576660,3579.178955 1712.642578,3578.405273 
z"/>
<path fill="#CAD5AF" opacity="1.000000" stroke="none" 
	d="
M1821.400391,282.164246 
	C1822.282959,282.336029 1822.052612,283.094971 1821.929443,283.471436 
	C1816.396851,283.895355 1810.987305,283.942780 1804.687988,283.769836 
	C1809.371338,283.030487 1814.944580,282.511475 1821.400391,282.164246 
z"/>
<path fill="#86D5B2" opacity="1.000000" stroke="none" 
	d="
M2050.659180,3577.905762 
	C2054.636963,3577.046875 2059.466553,3576.357910 2065.145264,3575.805176 
	C2061.166504,3576.652832 2056.339111,3577.364258 2050.659180,3577.905762 
z"/>
<path fill="#AED7B6" opacity="1.000000" stroke="none" 
	d="
M230.077942,1822.422607 
	C230.454468,1824.823608 230.564835,1827.874512 230.269440,1831.461426 
	C229.846375,1829.022461 229.829086,1826.047485 230.077942,1822.422607 
z"/>
<path fill="#AEC392" opacity="1.000000" stroke="none" 
	d="
M2054.065674,291.686890 
	C2050.442871,291.398132 2046.820190,291.109344 2042.596802,290.352234 
	C2045.414673,289.921631 2048.833252,289.959320 2053.127441,290.484192 
	C2054.002930,290.971405 2054.065674,291.686890 2054.065674,291.686890 
z"/>
<path fill="#AED7B6" opacity="1.000000" stroke="none" 
	d="
M227.689545,1866.398804 
	C228.286682,1867.715454 228.466370,1869.435425 228.280777,1871.576904 
	C227.701035,1870.266235 227.486557,1868.534180 227.689545,1866.398804 
z"/>
<path fill="#9BD1A4" opacity="1.000000" stroke="none" 
	d="
M3530.399414,1871.564453 
	C3529.748779,1870.289673 3529.451416,1868.577881 3529.527344,1866.435547 
	C3530.184814,1867.712524 3530.468750,1869.419922 3530.399414,1871.564453 
z"/>
<path fill="#9BD1A4" opacity="1.000000" stroke="none" 
	d="
M3530.294922,2001.593750 
	C3529.682373,2000.262329 3529.465088,1998.527100 3529.660889,1996.394165 
	C3530.279297,1997.727539 3530.484863,1999.458740 3530.294922,2001.593750 
z"/>
<path fill="#9BD1A4" opacity="1.000000" stroke="none" 
	d="
M3520.514160,1741.520264 
	C3519.686279,1739.629272 3519.206299,1737.252319 3519.082520,1734.340332 
	C3519.913086,1736.214844 3520.387695,1738.624634 3520.514160,1741.520264 
z"/>
<path fill="#83C190" opacity="1.000000" stroke="none" 
	d="
M237.544830,2124.482422 
	C238.344025,2126.340088 238.847351,2128.701172 238.947998,2131.571777 
	C238.113220,2129.716309 237.681091,2127.350830 237.544830,2124.482422 
z"/>
<path fill="#9BD1A4" opacity="1.000000" stroke="none" 
	d="
M3528.242432,2041.585938 
	C3527.663330,2040.264282 3527.471924,2038.532593 3527.689453,2036.397949 
	C3528.275635,2037.722046 3528.452881,2039.449097 3528.242432,2041.585938 
z"/>
<path fill="#9BD1A4" opacity="1.000000" stroke="none" 
	d="
M3524.246582,2091.683350 
	C3523.711426,2090.861816 3523.536377,2089.726074 3523.751221,2088.291992 
	C3524.296143,2089.118896 3524.451172,2090.243896 3524.246582,2091.683350 
z"/>
<path fill="#9BD1A4" opacity="1.000000" stroke="none" 
	d="
M3520.217285,2129.688232 
	C3519.701172,2128.860107 3519.551270,2127.723633 3519.791992,2126.289551 
	C3520.316406,2127.121094 3520.449951,2128.250488 3520.217285,2129.688232 
z"/>
<path fill="#9BD1A4" opacity="1.000000" stroke="none" 
	d="
M3522.221436,2111.685547 
	C3521.704346,2110.862549 3521.548584,2109.728760 3521.779541,2108.293457 
	C3522.304932,2109.119629 3522.443848,2110.247070 3522.221436,2111.685547 
z"/>
<path fill="#83C190" opacity="1.000000" stroke="none" 
	d="
M233.626160,2086.346191 
	C234.251007,2087.101318 234.594910,2088.212402 234.555206,2089.648926 
	C233.896133,2088.883789 233.620667,2087.792969 233.626160,2086.346191 
z"/>
<path fill="#83C190" opacity="1.000000" stroke="none" 
	d="
M229.688934,2034.340576 
	C230.322083,2035.115845 230.653610,2036.233276 230.586914,2037.663086 
	C229.921555,2036.877930 229.654449,2035.780151 229.688934,2034.340576 
z"/>
<path fill="#AED7B6" opacity="1.000000" stroke="none" 
	d="
M231.636169,1800.303711 
	C232.190170,1801.121460 232.359329,1802.243896 232.177948,1803.681274 
	C231.635376,1802.866943 231.443344,1801.737549 231.636169,1800.303711 
z"/>
<path fill="#AED7B6" opacity="1.000000" stroke="none" 
	d="
M228.179993,1856.481934 
	C228.611099,1857.549072 228.766556,1859.390381 228.548172,1861.681641 
	C228.084335,1860.506226 227.994354,1858.881226 228.179993,1856.481934 
z"/>
<path fill="#BECFA3" opacity="1.000000" stroke="none" 
	d="
M2054.830078,291.818634 
	C2054.065674,291.686890 2054.002930,290.971405 2053.972168,290.614502 
	C2055.699707,290.437378 2057.458008,290.617157 2059.714355,291.250305 
	C2058.672607,291.785919 2057.133545,291.868134 2054.830078,291.818634 
z"/>
<path fill="#BECFA3" opacity="1.000000" stroke="none" 
	d="
M2067.839844,292.951904 
	C2066.509277,293.242981 2064.786133,292.961487 2062.548096,292.274658 
	C2063.837646,292.039307 2065.642578,292.209290 2067.839844,292.951904 
z"/>
<path fill="#83C190" opacity="1.000000" stroke="none" 
	d="
M228.200439,2006.673828 
	C228.733109,2007.673218 229.063400,2009.440674 229.014130,2011.651123 
	C228.422363,2010.543335 228.210205,2008.992554 228.200439,2006.673828 
z"/>
<path fill="#A2D5AB" opacity="1.000000" stroke="none" 
	d="
M234.293655,1772.275635 
	C234.711777,1773.458740 234.823318,1775.216797 234.487335,1777.499756 
	C234.022247,1776.300049 234.004669,1774.575195 234.293655,1772.275635 
z"/>
<path fill="#83C190" opacity="1.000000" stroke="none" 
	d="
M240.173828,2146.527832 
	C240.766296,2147.098633 241.200195,2148.283203 241.349396,2150.080811 
	C240.714890,2149.509521 240.365082,2148.325684 240.173828,2146.527832 
z"/>
<path fill="#AED7B6" opacity="1.000000" stroke="none" 
	d="
M236.549255,1750.248291 
	C236.951004,1750.929199 237.008072,1752.091431 236.675568,1753.728760 
	C236.258850,1753.045654 236.231705,1751.887695 236.549255,1750.248291 
z"/>
<path fill="#AED7B6" opacity="1.000000" stroke="none" 
	d="
M237.907257,1734.648438 
	C238.306747,1735.110352 238.568481,1736.260132 238.478394,1737.754883 
	C238.007568,1737.178589 237.888535,1736.257324 237.907257,1734.648438 
z"/>
<path fill="#9BD1A4" opacity="1.000000" stroke="none" 
	d="
M3515.951172,1705.531738 
	C3515.359619,1704.980347 3514.936035,1703.846680 3514.805420,1702.143677 
	C3515.438232,1702.699341 3515.778564,1703.824463 3515.951172,1705.531738 
z"/>
<path fill="#83C190" opacity="1.000000" stroke="none" 
	d="
M242.274689,2162.471680 
	C242.660721,2162.470947 242.947311,2163.057373 242.958359,2163.890137 
	C242.513641,2163.777588 242.344452,2163.418213 242.274689,2162.471680 
z"/>
<path fill="#AED7B6" opacity="1.000000" stroke="none" 
	d="
M232.223083,1794.307983 
	C232.653290,1794.134766 232.913437,1794.550659 233.048279,1795.003784 
	C233.105728,1795.196777 232.901291,1795.467529 232.523438,1795.940552 
	C232.154816,1795.756226 232.078568,1795.334229 232.223083,1794.307983 
z"/>
<path fill="#83C190" opacity="1.000000" stroke="none" 
	d="
M236.301819,2114.376709 
	C236.772537,2114.506104 237.097702,2115.132812 237.167786,2116.253906 
	C236.660553,2116.123779 236.408401,2115.498779 236.301819,2114.376709 
z"/>
<path fill="#9BD1A4" opacity="1.000000" stroke="none" 
	d="
M3527.373535,2052.045410 
	C3526.962402,2051.802002 3526.845215,2051.160645 3527.075195,2050.136230 
	C3527.845703,2050.340332 3527.927490,2050.972168 3527.373535,2052.045410 
z"/>
<path fill="#83C190" opacity="1.000000" stroke="none" 
	d="
M230.275604,2044.449829 
	C230.650055,2044.476196 230.887039,2045.076050 230.832062,2045.903809 
	C230.406128,2045.762451 230.272125,2045.392822 230.275604,2044.449829 
z"/>
<path fill="#FEFFFE" opacity="1.000000" stroke="none" 
	d="
M1102.224365,2019.883057 
	C1102.224365,2019.883057 1103.081787,2019.879639 1104.006836,2020.494141 
	C1107.289917,2021.418335 1109.647949,2021.728149 1112.005859,2022.037964 
	C1124.562256,2025.242065 1135.041382,2032.168457 1144.988159,2040.171631 
	C1243.444458,2119.386719 1345.096313,2194.240234 1450.577759,2263.859375 
	C1454.462280,2266.422852 1458.407471,2268.894043 1463.148804,2271.937744 
	C1473.612671,2263.276855 1484.187012,2254.769287 1494.497070,2245.952393 
	C1582.633545,2170.581543 1671.580811,2096.128662 1758.573608,2019.458862 
	C1838.810547,1948.743286 1917.544556,1876.285767 1995.840332,1803.413452 
	C2102.951660,1703.721802 2206.470947,1600.308228 2308.529297,1495.470703 
	C2390.582275,1411.183350 2471.749268,1326.033081 2553.198242,1241.158936 
	C2578.347900,1214.952026 2603.031494,1188.298462 2628.113525,1162.026245 
	C2648.796143,1140.362183 2674.130859,1132.771240 2702.865723,1140.812378 
	C2730.376465,1148.510986 2748.075684,1167.116333 2754.648193,1195.132202 
	C2759.605225,1216.261719 2755.681396,1236.103027 2743.421631,1254.211182 
	C2713.907959,1297.804199 2684.895264,1341.743652 2654.897217,1385.000244 
	C2588.821777,1480.279663 2522.957031,1575.717651 2455.750000,1670.197388 
	C2330.943359,1845.650757 2201.095215,2017.298828 2064.077637,2183.458496 
	C1971.604492,2295.599121 1875.880981,2404.858887 1775.610474,2510.112305 
	C1717.444092,2571.168945 1658.062744,2631.010986 1596.630859,2688.785156 
	C1569.429321,2714.367188 1537.038330,2728.805420 1499.484375,2730.046631 
	C1447.710327,2731.758057 1406.412231,2710.624512 1374.682861,2670.422852 
	C1353.009644,2642.962402 1331.708862,2615.188721 1310.903564,2587.065430 
	C1207.607666,2447.436035 1110.443726,2303.632080 1018.395935,2156.355469 
	C1009.810730,2142.619385 1002.715149,2128.378906 1001.845337,2111.922607 
	C999.789917,2073.034668 1015.944214,2044.379150 1051.921265,2026.250488 
	C1054.171265,2025.485107 1055.143188,2024.849609 1056.115234,2024.214111 
	C1056.115234,2024.214111 1056.856934,2023.886841 1057.889404,2023.917236 
	C1059.975952,2023.348267 1061.030151,2022.748779 1062.084351,2022.149414 
	C1062.084351,2022.149414 1062.054443,2021.991577 1062.806396,2022.139648 
	C1065.732910,2021.575684 1067.907349,2020.863647 1070.081787,2020.151611 
	C1070.081787,2020.151611 1070.949585,2019.916016 1072.338623,2020.038574 
	C1083.226562,2020.068359 1092.725464,2019.975708 1102.224365,2019.883057 
z"/>
<path fill="#B1EFDE" opacity="1.000000" stroke="none" 
	d="
M1101.536377,2019.400879 
	C1092.725464,2019.975708 1083.226562,2020.068359 1072.788330,2020.036621 
	C1081.406372,2016.401489 1091.127686,2017.671265 1101.536377,2019.400879 
z"/>
<path fill="#B1EFDE" opacity="1.000000" stroke="none" 
	d="
M1111.462646,2021.573364 
	C1109.647949,2021.728149 1107.289917,2021.418335 1104.421509,2020.603516 
	C1106.247192,2020.435181 1108.583252,2020.771973 1111.462646,2021.573364 
z"/>
<path fill="#B1EFDE" opacity="1.000000" stroke="none" 
	d="
M1069.372314,2020.039795 
	C1067.907349,2020.863647 1065.732910,2021.575684 1062.841187,2022.213745 
	C1064.303467,2021.402466 1066.483154,2020.665161 1069.372314,2020.039795 
z"/>
<path fill="#B1EFDE" opacity="1.000000" stroke="none" 
	d="
M1061.460083,2022.065430 
	C1061.030151,2022.748779 1059.975952,2023.348267 1058.290283,2023.858154 
	C1058.717896,2023.172974 1059.776855,2022.577271 1061.460083,2022.065430 
z"/>
<path fill="#B1EFDE" opacity="1.000000" stroke="none" 
	d="
M1055.514160,2024.158203 
	C1055.143188,2024.849609 1054.171265,2025.485107 1052.594482,2026.079102 
	C1052.964233,2025.392578 1053.938721,2024.747437 1055.514160,2024.158203 
z"/>
</svg>